<svg width="768" height="475" viewBox="0 0 768 475" fill="none" xmlns="http://www.w3.org/2000/svg">
<g clip-path="url(#clip0)">
<mask id="mask0" mask-type="alpha" maskUnits="userSpaceOnUse" x="-1095" y="-33" width="1920" height="1011">
<path d="M-1095 239V511H-135H825V472.5V434H249H-327V395V356H249H825V317V278H249H-327V239V200H249H825V161.5V123H249H-327V84V45H249H825V6V-33H-135H-1095V239ZM-1027.2 1.5L-1024 11.9L-1012.9 12.2L-1001.9 12.5L-1010.4 18.5C-1015.1 21.8 -1018.9 24.9 -1019 25.5C-1019 26 -1017.6 30.8 -1016 36C-1014.4 41.2 -1013.2 45.5 -1013.4 45.7C-1013.5 45.9 -1017.4 43.3 -1022 40C-1026.6 36.7 -1030.6 34 -1031 34C-1031.3 34 -1035.4 36.7 -1039.9 40.1C-1044.5 43.4 -1048.4 46 -1048.6 45.8C-1048.7 45.6 -1047.5 40.8 -1045.8 35.2C-1042.7 25.2 -1042.7 24.9 -1044.6 23.6C-1045.6 22.8 -1049.6 19.9 -1053.5 17.1L-1060.5 12H-1049.2H-1038L-1034.8 1.5C-1033 -4.3 -1031.3 -9 -1031 -9C-1030.7 -9 -1029 -4.3 -1027.2 1.5ZM-899.2 1.5L-896 11.9L-884.9 12.2L-873.9 12.5L-882.4 18.5C-887.1 21.8 -890.9 24.9 -891 25.5C-891 26 -889.6 30.8 -888 36C-886.4 41.2 -885.2 45.5 -885.4 45.7C-885.5 45.9 -889.4 43.3 -894 40C-898.6 36.7 -902.6 34 -903 34C-903.3 34 -907.4 36.7 -911.9 40.1C-916.5 43.4 -920.4 46 -920.6 45.8C-920.7 45.6 -919.5 40.8 -917.8 35.2C-914.7 25.2 -914.7 24.9 -916.6 23.6C-917.6 22.8 -921.6 19.9 -925.5 17.1L-932.5 12H-921.2H-910L-906.8 1.5C-905 -4.3 -903.3 -9 -903 -9C-902.7 -9 -901 -4.3 -899.2 1.5ZM-771.2 1.5L-768 11.9L-756.9 12.2L-745.9 12.5L-754.4 18.5C-759.1 21.8 -762.9 24.9 -763 25.5C-763 26 -761.6 30.8 -760 36C-758.4 41.2 -757.2 45.5 -757.4 45.7C-757.5 45.9 -761.4 43.3 -766 40C-770.6 36.7 -774.6 34 -775 34C-775.3 34 -779.4 36.7 -783.9 40.1C-788.5 43.4 -792.4 46 -792.6 45.8C-792.7 45.6 -791.5 40.8 -789.8 35.2C-786.7 25.2 -786.7 24.9 -788.6 23.6C-789.6 22.8 -793.6 19.9 -797.5 17.1L-804.5 12H-793.2H-782L-778.8 1.5C-777 -4.3 -775.3 -9 -775 -9C-774.7 -9 -773 -4.3 -771.2 1.5ZM-643.2 1.5L-640 11.9L-628.9 12.2L-617.9 12.5L-626.4 18.5C-631.1 21.8 -634.9 24.9 -635 25.5C-635 26 -633.6 30.8 -632 36C-630.4 41.2 -629.2 45.5 -629.4 45.7C-629.5 45.9 -633.4 43.3 -638 40C-642.6 36.7 -646.6 34 -647 34C-647.3 34 -651.4 36.7 -655.9 40.1C-660.5 43.4 -664.4 46 -664.6 45.8C-664.7 45.6 -663.5 40.8 -661.8 35.2C-658.7 25.2 -658.7 24.9 -660.6 23.6C-661.6 22.8 -665.6 19.9 -669.5 17.1L-676.5 12H-665.2H-654L-650.8 1.5C-649 -4.3 -647.3 -9 -647 -9C-646.7 -9 -645 -4.3 -643.2 1.5ZM-515.2 1.5L-512 11.9L-500.9 12.2L-489.9 12.5L-498.4 18.5C-503.1 21.8 -506.9 24.9 -507 25.5C-507 26 -505.6 30.8 -504 36C-502.4 41.2 -501.2 45.5 -501.4 45.7C-501.5 45.9 -505.4 43.3 -510 40C-514.6 36.7 -518.6 34 -519 34C-519.3 34 -523.4 36.7 -527.9 40.1C-532.5 43.4 -536.4 46 -536.6 45.8C-536.7 45.6 -535.5 40.8 -533.8 35.2C-530.7 25.2 -530.7 24.9 -532.6 23.6C-533.6 22.8 -537.6 19.9 -541.5 17.1L-548.5 12H-537.2H-526L-522.8 1.5C-521 -4.3 -519.3 -9 -519 -9C-518.7 -9 -517 -4.3 -515.2 1.5ZM-387.2 1.5L-384 11.9L-372.9 12.2L-361.9 12.5L-370.4 18.5C-375.1 21.8 -378.9 24.9 -379 25.5C-379 26 -377.6 30.8 -376 36C-374.4 41.2 -373.2 45.5 -373.4 45.7C-373.5 45.9 -377.4 43.3 -382 40C-386.6 36.7 -390.6 34 -391 34C-391.3 34 -395.4 36.7 -399.9 40.1C-404.5 43.4 -408.4 46 -408.6 45.8C-408.7 45.6 -407.5 40.8 -405.8 35.2C-402.7 25.2 -402.7 24.9 -404.6 23.6C-405.6 22.8 -409.6 19.9 -413.5 17.1L-420.5 12H-409.2H-398L-394.8 1.5C-393 -4.3 -391.3 -9 -391 -9C-390.7 -9 -389 -4.3 -387.2 1.5ZM-963.2 56L-959.9 65.9L-948.7 66.2L-937.5 66.5L-946.2 72.9C-951.1 76.4 -955 79.8 -955 80.4C-955 81.1 -953.6 85.6 -952 90.5C-950.3 95.4 -949 99.8 -949 100.2C-949 100.7 -953 98.1 -958 94.4L-967 87.8L-976 94.4C-980.9 98.1 -985 100.7 -985 100.2C-985 99.8 -983.6 95.4 -982 90.5C-980.3 85.6 -979 81.1 -979 80.4C-979 79.7 -982.9 76.3 -987.7 72.8L-996.5 66.5L-985.3 66.2L-974.1 65.9L-970.8 56C-969 50.5 -967.3 46 -967 46C-966.7 46 -965 50.5 -963.2 56ZM-835.2 56L-831.9 65.9L-820.7 66.2L-809.5 66.5L-818.2 72.9C-823.1 76.4 -827 79.8 -827 80.4C-827 81.1 -825.6 85.6 -824 90.5C-822.3 95.4 -821 99.8 -821 100.2C-821 100.7 -825 98.1 -830 94.4L-839 87.8L-848 94.4C-852.9 98.1 -857 100.7 -857 100.2C-857 99.8 -855.6 95.4 -854 90.5C-852.3 85.6 -851 81.1 -851 80.4C-851 79.7 -854.9 76.3 -859.7 72.8L-868.5 66.5L-857.3 66.2L-846.1 65.9L-842.8 56C-841 50.5 -839.3 46 -839 46C-838.7 46 -837 50.5 -835.2 56ZM-707.2 56L-703.9 65.9L-692.7 66.2L-681.5 66.5L-690.2 72.9C-695.1 76.4 -699 79.8 -699 80.4C-699 81.1 -697.6 85.6 -696 90.5C-694.3 95.4 -693 99.8 -693 100.2C-693 100.7 -697 98.1 -702 94.4L-711 87.8L-720 94.4C-724.9 98.1 -729 100.7 -729 100.2C-729 99.8 -727.6 95.4 -726 90.5C-724.3 85.6 -723 81.1 -723 80.4C-723 79.7 -726.9 76.3 -731.7 72.8L-740.5 66.5L-729.3 66.2L-718.1 65.9L-714.8 56C-713 50.5 -711.3 46 -711 46C-710.7 46 -709 50.5 -707.2 56ZM-579.2 56L-575.9 65.9L-564.7 66.2L-553.5 66.5L-562.2 72.9C-567.1 76.4 -571 79.8 -571 80.4C-571 81.1 -569.6 85.6 -568 90.5C-566.3 95.4 -565 99.8 -565 100.2C-565 100.7 -569 98.1 -574 94.4L-583 87.8L-592 94.4C-596.9 98.1 -601 100.7 -601 100.2C-601 99.8 -599.6 95.4 -598 90.5C-596.3 85.6 -595 81.1 -595 80.4C-595 79.7 -598.9 76.3 -603.7 72.8L-612.5 66.5L-601.3 66.2L-590.1 65.9L-586.8 56C-585 50.5 -583.3 46 -583 46C-582.7 46 -581 50.5 -579.2 56ZM-451.2 56L-447.9 65.9L-436.7 66.2L-425.5 66.5L-434.2 72.9C-439.1 76.4 -443 79.8 -443 80.4C-443 81.1 -441.6 85.6 -440 90.5C-438.3 95.4 -437 99.8 -437 100.2C-437 100.7 -441 98.1 -446 94.4L-455 87.8L-464 94.4C-468.9 98.1 -473 100.7 -473 100.2C-473 99.8 -471.6 95.4 -470 90.5C-468.3 85.6 -467 81.1 -467 80.4C-467 79.7 -470.9 76.3 -475.7 72.8L-484.5 66.5L-473.3 66.2L-462.1 65.9L-458.8 56C-457 50.5 -455.3 46 -455 46C-454.7 46 -453 50.5 -451.2 56ZM-1027.1 110.5L-1023.9 121H-1012.8H-1001.6L-1010.1 127.1C-1014.7 130.5 -1018.7 133.4 -1018.9 133.6C-1019.1 133.8 -1017.9 138.6 -1016.2 144.2C-1014.5 149.8 -1013.2 154.5 -1013.3 154.7C-1013.5 154.9 -1017.3 152.3 -1021.8 149C-1026.3 145.7 -1030.5 143 -1031 143C-1031.5 143 -1035.7 145.7 -1040.2 149C-1044.7 152.3 -1048.5 154.8 -1048.7 154.6C-1048.9 154.4 -1047.6 149.7 -1045.9 144.1C-1044.1 138.6 -1042.8 133.8 -1043.1 133.6C-1043.3 133.4 -1047.3 130.5 -1051.9 127.1L-1060.4 121H-1049.2H-1038.1L-1034.9 110.5C-1033.1 104.7 -1031.4 100 -1031 100C-1030.6 100 -1028.9 104.7 -1027.1 110.5ZM-899.1 110.5L-895.9 121H-884.8H-873.6L-882.1 127.1C-886.7 130.5 -890.7 133.4 -890.9 133.6C-891.1 133.8 -889.9 138.6 -888.2 144.2C-886.5 149.8 -885.2 154.5 -885.3 154.7C-885.5 154.9 -889.3 152.3 -893.8 149C-898.3 145.7 -902.5 143 -903 143C-903.5 143 -907.7 145.7 -912.2 149C-916.7 152.3 -920.5 154.8 -920.7 154.6C-920.9 154.4 -919.6 149.7 -917.9 144.1C-916.1 138.6 -914.8 133.8 -915.1 133.6C-915.3 133.4 -919.3 130.5 -923.9 127.1L-932.4 121H-921.2H-910.1L-906.9 110.5C-905.1 104.7 -903.4 100 -903 100C-902.6 100 -900.9 104.7 -899.1 110.5ZM-771.1 110.5L-767.9 121H-756.8H-745.6L-754.1 127.1C-758.7 130.5 -762.7 133.4 -762.9 133.6C-763.1 133.8 -761.9 138.6 -760.2 144.2C-758.5 149.8 -757.2 154.5 -757.3 154.7C-757.5 154.9 -761.3 152.3 -765.8 149C-770.3 145.7 -774.5 143 -775 143C-775.5 143 -779.7 145.7 -784.2 149C-788.7 152.3 -792.5 154.8 -792.7 154.6C-792.9 154.4 -791.6 149.7 -789.9 144.1C-788.1 138.6 -786.8 133.8 -787.1 133.6C-787.3 133.4 -791.3 130.5 -795.9 127.1L-804.4 121H-793.2H-782.1L-778.9 110.5C-777.1 104.7 -775.4 100 -775 100C-774.6 100 -772.9 104.7 -771.1 110.5ZM-643.1 110.5L-639.9 121H-628.8H-617.6L-626.1 127.1C-630.7 130.5 -634.7 133.4 -634.9 133.6C-635.1 133.8 -633.9 138.6 -632.2 144.2C-630.5 149.8 -629.2 154.5 -629.3 154.7C-629.5 154.9 -633.3 152.3 -637.8 149C-642.3 145.7 -646.5 143 -647 143C-647.5 143 -651.7 145.7 -656.2 149C-660.7 152.3 -664.5 154.8 -664.7 154.6C-664.9 154.4 -663.6 149.7 -661.9 144.1C-660.1 138.6 -658.8 133.8 -659.1 133.6C-659.3 133.4 -663.3 130.5 -667.9 127.1L-676.4 121H-665.2H-654.1L-650.9 110.5C-649.1 104.7 -647.4 100 -647 100C-646.6 100 -644.9 104.7 -643.1 110.5ZM-515.1 110.5L-511.9 121H-500.8H-489.6L-498.1 127.1C-502.7 130.5 -506.7 133.4 -506.9 133.6C-507.1 133.8 -505.9 138.6 -504.2 144.2C-502.5 149.8 -501.2 154.5 -501.3 154.7C-501.5 154.9 -505.3 152.3 -509.8 149C-514.3 145.7 -518.5 143 -519 143C-519.5 143 -523.7 145.7 -528.2 149C-532.7 152.3 -536.5 154.8 -536.7 154.6C-536.9 154.4 -535.6 149.7 -533.9 144.1C-532.1 138.6 -530.8 133.8 -531.1 133.6C-531.3 133.4 -535.3 130.5 -539.9 127.1L-548.4 121H-537.2H-526.1L-522.9 110.5C-521.1 104.7 -519.4 100 -519 100C-518.6 100 -516.9 104.7 -515.1 110.5ZM-387.1 110.5L-383.9 121H-372.8H-361.6L-370.1 127.1C-374.7 130.5 -378.7 133.4 -378.9 133.6C-379.1 133.8 -377.9 138.6 -376.2 144.2C-374.5 149.8 -373.2 154.5 -373.3 154.7C-373.5 154.9 -377.3 152.3 -381.8 149C-386.3 145.7 -390.5 143 -391 143C-391.5 143 -395.7 145.7 -400.2 149C-404.7 152.3 -408.5 154.8 -408.7 154.6C-408.9 154.4 -407.6 149.7 -405.9 144.1C-404.1 138.6 -402.8 133.8 -403.1 133.6C-403.3 133.4 -407.3 130.5 -411.9 127.1L-420.4 121H-409.2H-398.1L-394.9 110.5C-393.1 104.7 -391.4 100 -391 100C-390.6 100 -388.9 104.7 -387.1 110.5ZM-963.2 165L-959.9 174.9L-948.8 175.2L-937.6 175.5L-946.3 181.8C-951.1 185.3 -955 188.7 -955 189.4C-955 190.1 -953.6 194.6 -952 199.5C-950.3 204.4 -949 208.8 -949 209.2C-949 209.7 -951.6 208.2 -954.7 205.8C-957.9 203.3 -962 200.4 -963.8 199.1L-967 196.8L-976 203.4C-981 207 -985 209.6 -985 209.2C-985 208.8 -983.6 204.3 -981.9 199.2C-980.2 194.1 -979 189.3 -979.3 188.6C-979.6 187.9 -983.6 184.6 -988.2 181.4L-996.5 175.5L-985.3 175.2L-974.1 174.9L-970.8 165C-969 159.5 -967.3 155 -967 155C-966.7 155 -965 159.5 -963.2 165ZM-835.2 165L-831.9 174.9L-820.8 175.2L-809.6 175.5L-818.3 181.8C-823.1 185.3 -827 188.7 -827 189.4C-827 190.1 -825.6 194.6 -824 199.5C-822.3 204.4 -821 208.8 -821 209.2C-821 209.7 -823.6 208.2 -826.7 205.8C-829.9 203.3 -834 200.4 -835.8 199.1L-839 196.8L-848 203.4C-853 207 -857 209.6 -857 209.2C-857 208.8 -855.6 204.3 -853.9 199.2C-852.2 194.1 -851 189.3 -851.3 188.6C-851.6 187.9 -855.6 184.6 -860.2 181.4L-868.5 175.5L-857.3 175.2L-846.1 174.9L-842.8 165C-841 159.5 -839.3 155 -839 155C-838.7 155 -837 159.5 -835.2 165ZM-707.2 165L-703.9 174.9L-692.8 175.2L-681.6 175.5L-690.3 181.8C-695.1 185.3 -699 188.7 -699 189.4C-699 190.1 -697.6 194.6 -696 199.5C-694.3 204.4 -693 208.8 -693 209.2C-693 209.7 -695.6 208.2 -698.7 205.8C-701.9 203.3 -706 200.4 -707.8 199.1L-711 196.8L-720 203.4C-725 207 -729 209.6 -729 209.2C-729 208.8 -727.6 204.3 -725.9 199.2C-724.2 194.1 -723 189.3 -723.3 188.6C-723.6 187.9 -727.6 184.6 -732.2 181.4L-740.5 175.5L-729.3 175.2L-718.1 174.9L-714.8 165C-713 159.5 -711.3 155 -711 155C-710.7 155 -709 159.5 -707.2 165ZM-579.2 165L-575.9 174.9L-564.8 175.2L-553.6 175.5L-562.3 181.8C-567.1 185.3 -571 188.7 -571 189.4C-571 190.1 -569.6 194.6 -568 199.5C-566.3 204.4 -565 208.8 -565 209.2C-565 209.7 -567.6 208.2 -570.7 205.8C-573.9 203.3 -578 200.4 -579.8 199.1L-583 196.8L-592 203.4C-597 207 -601 209.6 -601 209.2C-601 208.8 -599.6 204.3 -597.9 199.2C-596.2 194.1 -595 189.3 -595.3 188.6C-595.6 187.9 -599.6 184.6 -604.2 181.4L-612.5 175.5L-601.3 175.2L-590.1 174.9L-586.8 165C-585 159.5 -583.3 155 -583 155C-582.7 155 -581 159.5 -579.2 165ZM-451.2 165L-447.9 174.9L-436.8 175.2L-425.6 175.5L-434.3 181.8C-439.1 185.3 -443 188.7 -443 189.4C-443 190.1 -441.6 194.6 -440 199.5C-438.3 204.4 -437 208.8 -437 209.2C-437 209.7 -439.6 208.2 -442.7 205.8C-445.9 203.3 -450 200.4 -451.8 199.1L-455 196.8L-464 203.4C-469 207 -473 209.6 -473 209.2C-473 208.8 -471.6 204.3 -469.9 199.2C-468.2 194.1 -467 189.3 -467.3 188.6C-467.6 187.9 -471.6 184.6 -476.2 181.4L-484.5 175.5L-473.3 175.2L-462.1 174.9L-458.8 165C-457 159.5 -455.3 155 -455 155C-454.7 155 -453 159.5 -451.2 165ZM-1027.3 218.7L-1024.3 228.5L-1013.2 228.8C-1007 228.9 -1002 229.4 -1002 229.8C-1002.1 230.2 -1005.9 233.2 -1010.5 236.5C-1015.2 239.7 -1019 242.9 -1019 243.5C-1019 244.1 -1017.6 248.6 -1016 253.5C-1014.3 258.4 -1013.1 262.8 -1013.2 263.2C-1013.4 263.6 -1017.1 261.3 -1021.5 258C-1025.9 254.7 -1030.1 252.1 -1030.8 252C-1031.5 252 -1035.8 254.7 -1040.3 258C-1044.8 261.3 -1048.6 263.7 -1048.8 263.2C-1048.9 262.8 -1047.7 258.4 -1046 253.5C-1044.4 248.6 -1043 244.1 -1043 243.5C-1043 242.9 -1046.9 239.5 -1051.7 236L-1060.5 229.5L-1049.1 229L-1037.7 228.5L-1034.7 218.7C-1033 213.4 -1031.4 209 -1031 209C-1030.6 209 -1029 213.4 -1027.3 218.7ZM-899.3 218.7L-896.3 228.5L-885.2 228.8C-879 228.9 -874 229.4 -874 229.8C-874.1 230.2 -877.9 233.2 -882.5 236.5C-887.2 239.7 -891 242.9 -891 243.5C-891 244.1 -889.6 248.6 -888 253.5C-886.3 258.4 -885.1 262.8 -885.2 263.2C-885.4 263.6 -889.1 261.3 -893.5 258C-897.9 254.7 -902.1 252.1 -902.8 252C-903.5 252 -907.8 254.7 -912.3 258C-916.8 261.3 -920.6 263.7 -920.8 263.2C-920.9 262.8 -919.7 258.4 -918 253.5C-916.4 248.6 -915 244.1 -915 243.5C-915 242.9 -918.9 239.5 -923.7 236L-932.5 229.5L-921.1 229L-909.7 228.5L-906.7 218.7C-905 213.4 -903.4 209 -903 209C-902.6 209 -901 213.4 -899.3 218.7ZM-771.3 218.7L-768.3 228.5L-757.2 228.8C-751 228.9 -746 229.4 -746 229.8C-746.1 230.2 -749.9 233.2 -754.5 236.5C-759.2 239.7 -763 242.9 -763 243.5C-763 244.1 -761.6 248.6 -760 253.5C-758.3 258.4 -757.1 262.8 -757.2 263.2C-757.4 263.6 -761.1 261.3 -765.5 258C-769.9 254.7 -774.1 252.1 -774.8 252C-775.5 252 -779.8 254.7 -784.3 258C-788.8 261.3 -792.6 263.7 -792.8 263.2C-792.9 262.8 -791.7 258.4 -790 253.5C-788.4 248.6 -787 244.1 -787 243.5C-787 242.9 -790.9 239.5 -795.7 236L-804.5 229.5L-793.1 229L-781.7 228.5L-778.7 218.7C-777 213.4 -775.4 209 -775 209C-774.6 209 -773 213.4 -771.3 218.7ZM-643.3 218.7L-640.3 228.5L-629.2 228.8C-623 228.9 -618 229.4 -618 229.8C-618.1 230.2 -621.9 233.2 -626.5 236.5C-631.2 239.7 -635 242.9 -635 243.5C-635 244.1 -633.6 248.6 -632 253.5C-630.3 258.4 -629.1 262.8 -629.2 263.2C-629.4 263.6 -633.1 261.3 -637.5 258C-641.9 254.7 -646.1 252.1 -646.8 252C-647.5 252 -651.8 254.7 -656.3 258C-660.8 261.3 -664.6 263.7 -664.8 263.2C-664.9 262.8 -663.7 258.4 -662 253.5C-660.4 248.6 -659 244.1 -659 243.5C-659 242.9 -662.9 239.5 -667.7 236L-676.5 229.5L-665.1 229L-653.7 228.5L-650.7 218.7C-649 213.4 -647.4 209 -647 209C-646.6 209 -645 213.4 -643.3 218.7ZM-515.3 218.7L-512.3 228.5L-501.2 228.8C-495 228.9 -490 229.4 -490 229.8C-490.1 230.2 -493.9 233.2 -498.5 236.5C-503.2 239.7 -507 242.9 -507 243.5C-507 244.1 -505.6 248.6 -504 253.5C-502.3 258.4 -501.1 262.8 -501.2 263.2C-501.4 263.6 -505.1 261.3 -509.5 258C-513.9 254.7 -518.1 252.1 -518.8 252C-519.5 252 -523.8 254.7 -528.3 258C-532.8 261.3 -536.6 263.7 -536.8 263.2C-536.9 262.8 -535.7 258.4 -534 253.5C-532.4 248.6 -531 244.1 -531 243.5C-531 242.9 -534.9 239.5 -539.7 236L-548.5 229.5L-537.1 229L-525.7 228.5L-522.7 218.7C-521 213.4 -519.4 209 -519 209C-518.6 209 -517 213.4 -515.3 218.7ZM-387.3 218.7L-384.3 228.5L-373.2 228.8C-367 228.9 -362 229.4 -362 229.8C-362.1 230.2 -365.9 233.2 -370.5 236.5C-375.2 239.7 -379 242.9 -379 243.5C-379 244.1 -377.6 248.6 -376 253.5C-374.3 258.4 -373.1 262.8 -373.2 263.2C-373.4 263.6 -377.1 261.3 -381.5 258C-385.9 254.7 -390.1 252.1 -390.8 252C-391.5 252 -395.8 254.7 -400.3 258C-404.8 261.3 -408.6 263.7 -408.8 263.2C-408.9 262.8 -407.7 258.4 -406 253.5C-404.4 248.6 -403 244.1 -403 243.5C-403 242.9 -406.9 239.5 -411.7 236L-420.5 229.5L-409.1 229L-397.7 228.5L-394.7 218.7C-393 213.4 -391.4 209 -391 209C-390.6 209 -389 213.4 -387.3 218.7ZM-963.2 274L-959.9 283.9L-948.9 284.2L-937.8 284.5L-946.4 290.8C-951.1 294.2 -955 297.6 -955 298.3C-955 299 -953.7 303.6 -952 308.5C-950.4 313.4 -949.2 317.5 -949.4 317.8C-949.7 318 -953.1 315.8 -957.2 312.8C-961.2 309.8 -965.1 307 -965.8 306.6C-966.6 306.1 -970.1 308 -975.6 312C-980.3 315.4 -984.3 318 -984.5 317.8C-984.7 317.6 -983.6 313.2 -981.9 308.1C-980.3 302.9 -979.1 298.1 -979.4 297.5C-979.6 296.8 -983.5 293.6 -988 290.4L-996.2 284.5L-985.2 284.2L-974.1 283.9L-970.8 274C-969 268.5 -967.3 264 -967 264C-966.7 264 -965 268.5 -963.2 274ZM-835.2 274L-831.9 283.9L-820.9 284.2L-809.8 284.5L-818.4 290.8C-823.1 294.2 -827 297.6 -827 298.3C-827 299 -825.7 303.6 -824 308.5C-822.4 313.4 -821.2 317.5 -821.4 317.8C-821.7 318 -825.1 315.8 -829.2 312.8C-833.2 309.8 -837.1 307 -837.8 306.6C-838.6 306.1 -842.1 308 -847.6 312C-852.3 315.4 -856.3 318 -856.5 317.8C-856.7 317.6 -855.6 313.2 -853.9 308.1C-852.3 302.9 -851.1 298.1 -851.4 297.5C-851.6 296.8 -855.5 293.6 -860 290.4L-868.2 284.5L-857.2 284.2L-846.1 283.9L-842.8 274C-841 268.5 -839.3 264 -839 264C-838.7 264 -837 268.5 -835.2 274ZM-707.2 274L-703.9 283.9L-692.9 284.2L-681.8 284.5L-690.4 290.8C-695.1 294.2 -699 297.6 -699 298.3C-699 299 -697.7 303.6 -696 308.5C-694.4 313.4 -693.2 317.5 -693.4 317.8C-693.7 318 -697.1 315.8 -701.2 312.8C-705.2 309.8 -709.1 307 -709.8 306.6C-710.6 306.1 -714.1 308 -719.6 312C-724.3 315.4 -728.3 318 -728.5 317.8C-728.7 317.6 -727.6 313.2 -725.9 308.1C-724.3 302.9 -723.1 298.1 -723.4 297.5C-723.6 296.8 -727.5 293.6 -732 290.4L-740.2 284.5L-729.2 284.2L-718.1 283.9L-714.8 274C-713 268.5 -711.3 264 -711 264C-710.7 264 -709 268.5 -707.2 274ZM-579.2 274L-575.9 283.9L-564.9 284.2L-553.8 284.5L-562.4 290.8C-567.1 294.2 -571 297.6 -571 298.3C-571 299 -569.7 303.6 -568 308.5C-566.4 313.4 -565.2 317.5 -565.4 317.8C-565.7 318 -569.1 315.8 -573.2 312.8C-577.2 309.8 -581.1 307 -581.8 306.6C-582.6 306.1 -586.1 308 -591.6 312C-596.3 315.4 -600.3 318 -600.5 317.8C-600.7 317.6 -599.6 313.2 -597.9 308.1C-596.3 302.9 -595.1 298.1 -595.4 297.5C-595.6 296.8 -599.5 293.6 -604 290.4L-612.2 284.5L-601.2 284.2L-590.1 283.9L-586.8 274C-585 268.5 -583.3 264 -583 264C-582.7 264 -581 268.5 -579.2 274ZM-451.2 274L-447.9 283.9L-436.9 284.2L-425.8 284.5L-434.4 290.8C-439.1 294.2 -443 297.6 -443 298.3C-443 299 -441.7 303.6 -440 308.5C-438.4 313.4 -437.2 317.5 -437.4 317.8C-437.7 318 -441.1 315.8 -445.2 312.8C-449.2 309.8 -453.1 307 -453.8 306.6C-454.6 306.1 -458.1 308 -463.6 312C-468.3 315.4 -472.3 318 -472.5 317.8C-472.7 317.6 -471.6 313.2 -469.9 308.1C-468.3 302.9 -467.1 298.1 -467.4 297.5C-467.6 296.8 -471.5 293.6 -476 290.4L-484.2 284.5L-473.2 284.2L-462.1 283.9L-458.8 274C-457 268.5 -455.3 264 -455 264C-454.7 264 -453 268.5 -451.2 274ZM-1027.2 328L-1023.9 337.9L-1012.7 338.2L-1001.5 338.5L-1010.2 345C-1015.1 348.5 -1019 351.9 -1019 352.5C-1019 353.1 -1017.6 357.6 -1016 362.5C-1014.3 367.4 -1013.1 371.8 -1013.2 372.2C-1013.4 372.5 -1017.4 370 -1022.2 366.5L-1030.9 360.1L-1039.7 366.5C-1044.5 370 -1048.6 372.6 -1048.8 372.2C-1048.9 371.8 -1047.7 367.4 -1046 362.5C-1044.4 357.6 -1043 353.1 -1043 352.5C-1043 351.9 -1046.9 348.5 -1051.7 344.9L-1060.5 338.5L-1049.3 338.2L-1038.1 337.9L-1034.8 328C-1033 322.5 -1031.3 318 -1031 318C-1030.7 318 -1029 322.5 -1027.2 328ZM-899.2 328L-895.9 337.9L-884.7 338.2L-873.5 338.5L-882.2 345C-887.1 348.5 -891 351.9 -891 352.5C-891 353.1 -889.6 357.6 -888 362.5C-886.3 367.4 -885.1 371.8 -885.2 372.2C-885.4 372.5 -889.4 370 -894.2 366.5L-902.9 360.1L-911.7 366.5C-916.5 370 -920.6 372.6 -920.8 372.2C-920.9 371.8 -919.7 367.4 -918 362.5C-916.4 357.6 -915 353.1 -915 352.5C-915 351.9 -918.9 348.5 -923.7 344.9L-932.5 338.5L-921.3 338.2L-910.1 337.9L-906.8 328C-905 322.5 -903.3 318 -903 318C-902.7 318 -901 322.5 -899.2 328ZM-771.2 328L-767.9 337.9L-756.7 338.2L-745.5 338.5L-754.2 345C-759.1 348.5 -763 351.9 -763 352.5C-763 353.1 -761.6 357.6 -760 362.5C-758.3 367.4 -757.1 371.8 -757.2 372.2C-757.4 372.5 -761.4 370 -766.2 366.5L-774.9 360.1L-783.7 366.5C-788.5 370 -792.6 372.6 -792.8 372.2C-792.9 371.8 -791.7 367.4 -790 362.5C-788.4 357.6 -787 353.1 -787 352.5C-787 351.9 -790.9 348.5 -795.7 344.9L-804.5 338.5L-793.3 338.2L-782.1 337.9L-778.8 328C-777 322.5 -775.3 318 -775 318C-774.7 318 -773 322.5 -771.2 328ZM-643.2 328L-639.9 337.9L-628.7 338.2L-617.5 338.5L-626.2 345C-631.1 348.5 -635 351.9 -635 352.5C-635 353.1 -633.6 357.6 -632 362.5C-630.3 367.4 -629.1 371.8 -629.2 372.2C-629.4 372.5 -633.4 370 -638.2 366.5L-646.9 360.1L-655.7 366.5C-660.5 370 -664.6 372.6 -664.8 372.2C-664.9 371.8 -663.7 367.4 -662 362.5C-660.4 357.6 -659 353.1 -659 352.5C-659 351.9 -662.9 348.5 -667.7 344.9L-676.5 338.5L-665.3 338.2L-654.1 337.9L-650.8 328C-649 322.5 -647.3 318 -647 318C-646.7 318 -645 322.5 -643.2 328ZM-515.2 328L-511.9 337.9L-500.7 338.2L-489.5 338.5L-498.2 345C-503.1 348.5 -507 351.9 -507 352.5C-507 353.1 -505.6 357.6 -504 362.5C-502.3 367.4 -501.1 371.8 -501.2 372.2C-501.4 372.5 -505.4 370 -510.2 366.5L-518.9 360.1L-527.7 366.5C-532.5 370 -536.6 372.6 -536.8 372.2C-536.9 371.8 -535.7 367.4 -534 362.5C-532.4 357.6 -531 353.1 -531 352.5C-531 351.9 -534.9 348.5 -539.7 344.9L-548.5 338.5L-537.3 338.2L-526.1 337.9L-522.8 328C-521 322.5 -519.3 318 -519 318C-518.7 318 -517 322.5 -515.2 328ZM-387.2 328L-383.9 337.9L-372.7 338.2L-361.5 338.5L-370.2 345C-375.1 348.5 -379 351.9 -379 352.5C-379 353.1 -377.6 357.6 -376 362.5C-374.3 367.4 -373.1 371.8 -373.2 372.2C-373.4 372.5 -377.4 370 -382.2 366.5L-390.9 360.1L-399.7 366.5C-404.5 370 -408.6 372.6 -408.8 372.2C-408.9 371.8 -407.7 367.4 -406 362.5C-404.4 357.6 -403 353.1 -403 352.5C-403 351.9 -406.9 348.5 -411.7 344.9L-420.5 338.5L-409.3 338.2L-398.1 337.9L-394.8 328C-393 322.5 -391.3 318 -391 318C-390.7 318 -389 322.5 -387.2 328ZM-963.2 382.5L-959.9 392.9L-948.8 393.2L-937.7 393.5L-946.3 399.5C-951.1 402.8 -954.9 406 -955 406.5C-955 407.1 -953.7 411.8 -952 417C-950.4 422.2 -949.3 426.6 -949.4 426.8C-949.6 427 -953.5 424.4 -958.1 421.1C-962.6 417.7 -966.6 415 -967 415C-967.4 415 -971.4 417.7 -975.9 421.1C-980.5 424.4 -984.4 427 -984.6 426.8C-984.7 426.6 -983.6 422.2 -982 417C-980.3 411.8 -979 407.1 -979 406.5C-979.1 406 -982.9 402.8 -987.6 399.5L-996.1 393.5L-985.1 393.2L-974 392.9L-970.8 382.5C-969 376.7 -967.3 372 -967 372C-966.7 372 -965 376.7 -963.2 382.5ZM-835.2 382.5L-831.9 392.9L-820.8 393.2L-809.7 393.5L-818.3 399.5C-823.1 402.8 -826.9 406 -827 406.5C-827 407.1 -825.7 411.8 -824 417C-822.4 422.2 -821.3 426.6 -821.4 426.8C-821.6 427 -825.5 424.4 -830.1 421.1C-834.6 417.7 -838.6 415 -839 415C-839.4 415 -843.4 417.7 -847.9 421.1C-852.5 424.4 -856.4 427 -856.6 426.8C-856.7 426.6 -855.6 422.2 -854 417C-852.3 411.8 -851 407.1 -851 406.5C-851.1 406 -854.9 402.8 -859.6 399.5L-868.1 393.5L-857.1 393.2L-846 392.9L-842.8 382.5C-841 376.7 -839.3 372 -839 372C-838.7 372 -837 376.7 -835.2 382.5ZM-707.2 382.5L-703.9 392.9L-692.8 393.2L-681.7 393.5L-690.3 399.5C-695.1 402.8 -698.9 406 -699 406.5C-699 407.1 -697.7 411.8 -696 417C-694.4 422.2 -693.3 426.6 -693.4 426.8C-693.6 427 -697.5 424.4 -702.1 421.1C-706.6 417.7 -710.6 415 -711 415C-711.4 415 -715.4 417.7 -719.9 421.1C-724.5 424.4 -728.4 427 -728.6 426.8C-728.7 426.6 -727.6 422.2 -726 417C-724.3 411.8 -723 407.1 -723 406.5C-723.1 406 -726.9 402.8 -731.6 399.5L-740.1 393.5L-729.1 393.2L-718 392.9L-714.8 382.5C-713 376.7 -711.3 372 -711 372C-710.7 372 -709 376.7 -707.2 382.5ZM-579.2 382.5L-575.9 392.9L-564.8 393.2L-553.7 393.5L-562.3 399.5C-567.1 402.8 -570.9 406 -571 406.5C-571 407.1 -569.7 411.8 -568 417C-566.4 422.2 -565.3 426.6 -565.4 426.8C-565.6 427 -569.5 424.4 -574.1 421.1C-578.6 417.7 -582.6 415 -583 415C-583.4 415 -587.4 417.7 -591.9 421.1C-596.5 424.4 -600.4 427 -600.6 426.8C-600.7 426.6 -599.6 422.2 -598 417C-596.3 411.8 -595 407.1 -595 406.5C-595.1 406 -598.9 402.8 -603.6 399.5L-612.1 393.5L-601.1 393.2L-590 392.9L-586.8 382.5C-585 376.7 -583.3 372 -583 372C-582.7 372 -581 376.7 -579.2 382.5ZM-451.2 382.5L-447.9 392.9L-436.8 393.2L-425.7 393.5L-434.3 399.5C-439.1 402.8 -442.9 406 -443 406.5C-443 407.1 -441.7 411.8 -440 417C-438.4 422.2 -437.3 426.6 -437.4 426.8C-437.6 427 -441.5 424.4 -446.1 421.1C-450.6 417.7 -454.6 415 -455 415C-455.4 415 -459.4 417.7 -463.9 421.1C-468.5 424.4 -472.4 427 -472.6 426.8C-472.7 426.6 -471.6 422.2 -470 417C-468.3 411.8 -467 407.1 -467 406.5C-467.1 406 -470.9 402.8 -475.6 399.5L-484.1 393.5L-473.1 393.2L-462 392.9L-458.8 382.5C-457 376.7 -455.3 372 -455 372C-454.7 372 -453 376.7 -451.2 382.5ZM-1027.2 437L-1023.9 446.9L-1012.7 447.2L-1001.5 447.5L-1010.2 453.9C-1015.1 457.4 -1019 460.8 -1019 461.4C-1019 462.1 -1017.6 466.6 -1016 471.5C-1014.3 476.4 -1013 480.7 -1013 481.2C-1013 481.6 -1017.1 479.1 -1022 475.5L-1031 469L-1039.8 475.4C-1044.6 478.9 -1048.6 481.5 -1048.8 481.1C-1048.9 480.8 -1047.7 476.4 -1046 471.5C-1044.4 466.6 -1043 462.1 -1043 461.4C-1043 460.8 -1046.9 457.4 -1051.7 453.9L-1060.5 447.5L-1049.3 447.2L-1038.1 446.9L-1034.8 437C-1033 431.5 -1031.3 427 -1031 427C-1030.7 427 -1029 431.5 -1027.2 437ZM-899.2 437L-895.9 446.9L-884.7 447.2L-873.5 447.5L-882.2 453.9C-887.1 457.4 -891 460.8 -891 461.4C-891 462.1 -889.6 466.6 -888 471.5C-886.3 476.4 -885 480.7 -885 481.2C-885 481.6 -889.1 479.1 -894 475.5L-903 469L-911.8 475.4C-916.6 478.9 -920.6 481.5 -920.8 481.1C-920.9 480.8 -919.7 476.4 -918 471.5C-916.4 466.6 -915 462.1 -915 461.4C-915 460.8 -918.9 457.4 -923.7 453.9L-932.5 447.5L-921.3 447.2L-910.1 446.9L-906.8 437C-905 431.5 -903.3 427 -903 427C-902.7 427 -901 431.5 -899.2 437ZM-771.2 437L-767.9 446.9L-756.7 447.2L-745.5 447.5L-754.2 453.9C-759.1 457.4 -763 460.8 -763 461.4C-763 462.1 -761.6 466.6 -760 471.5C-758.3 476.4 -757 480.7 -757 481.2C-757 481.6 -761.1 479.1 -766 475.5L-775 469L-783.8 475.4C-788.6 478.9 -792.6 481.5 -792.8 481.1C-792.9 480.8 -791.7 476.4 -790 471.5C-788.4 466.6 -787 462.1 -787 461.4C-787 460.8 -790.9 457.4 -795.7 453.9L-804.5 447.5L-793.3 447.2L-782.1 446.9L-778.8 437C-777 431.5 -775.3 427 -775 427C-774.7 427 -773 431.5 -771.2 437ZM-643.2 437L-639.9 446.9L-628.7 447.2L-617.5 447.5L-626.2 453.9C-631.1 457.4 -635 460.8 -635 461.4C-635 462.1 -633.6 466.6 -632 471.5C-630.3 476.4 -629 480.7 -629 481.2C-629 481.6 -633.1 479.1 -638 475.5L-647 469L-655.8 475.4C-660.6 478.9 -664.6 481.5 -664.8 481.1C-664.9 480.8 -663.7 476.4 -662 471.5C-660.4 466.6 -659 462.1 -659 461.4C-659 460.8 -662.9 457.4 -667.7 453.9L-676.5 447.5L-665.3 447.2L-654.1 446.9L-650.8 437C-649 431.5 -647.3 427 -647 427C-646.7 427 -645 431.5 -643.2 437ZM-515.2 437L-511.9 446.9L-500.7 447.2L-489.5 447.5L-498.2 453.9C-503.1 457.4 -507 460.8 -507 461.4C-507 462.1 -505.6 466.6 -504 471.5C-502.3 476.4 -501 480.7 -501 481.2C-501 481.6 -505.1 479.1 -510 475.5L-519 469L-527.8 475.4C-532.6 478.9 -536.6 481.5 -536.8 481.1C-536.9 480.8 -535.7 476.4 -534 471.5C-532.4 466.6 -531 462.1 -531 461.4C-531 460.8 -534.9 457.4 -539.7 453.9L-548.5 447.5L-537.3 447.2L-526.1 446.9L-522.8 437C-521 431.5 -519.3 427 -519 427C-518.7 427 -517 431.5 -515.2 437ZM-387.2 437L-383.9 446.9L-372.7 447.2L-361.5 447.5L-370.2 453.9C-375.1 457.4 -379 460.8 -379 461.4C-379 462.1 -377.6 466.6 -376 471.5C-374.3 476.4 -373 480.7 -373 481.2C-373 481.6 -377.1 479.1 -382 475.5L-391 469L-399.8 475.4C-404.6 478.9 -408.6 481.5 -408.8 481.1C-408.9 480.8 -407.7 476.4 -406 471.5C-404.4 466.6 -403 462.1 -403 461.4C-403 460.8 -406.9 457.4 -411.7 453.9L-420.5 447.5L-409.3 447.2L-398.1 446.9L-394.8 437C-393 431.5 -391.3 427 -391 427C-390.7 427 -389 431.5 -387.2 437Z" fill="url(#paint0_radial)"/>
</mask>
<g mask="url(#mask0)">
<path fill-rule="evenodd" clip-rule="evenodd" d="M768 0H120V120.82L-3 238.5L120 356.18V475H768V0Z" fill="url(#paint1_radial)"/>
</g>
</g>
<defs>
<radialGradient id="paint0_radial" cx="0" cy="0" r="1" gradientUnits="userSpaceOnUse" gradientTransform="translate(-135 238.995) scale(2063 354169)">
<stop stop-color="#681313"/>
<stop offset="1" stop-color="#CC001A"/>
</radialGradient>
<radialGradient id="paint1_radial" cx="0" cy="0" r="1" gradientUnits="userSpaceOnUse" gradientTransform="translate(382.5 237.505) scale(828.423 309247)">
<stop stop-color="#681313"/>
<stop offset="1" stop-color="#CC001A"/>
</radialGradient>
<clipPath id="clip0">
<rect width="768" height="475" fill="white"/>
</clipPath>
</defs>
</svg>
