<svg width="768" height="475" viewBox="0 0 768 475" fill="none" xmlns="http://www.w3.org/2000/svg">
<g clip-path="url(#clip0)">
<mask id="mask0" mask-type="alpha" maskUnits="userSpaceOnUse" x="0" y="-34" width="1920" height="855">
<path d="M0 238V510H960H1920V471.5V433H1344H768V394V355H1344H1920V316V277H1344H768V238V199H1344H1920V160.5V122H1344H768V83V44H1344H1920V5V-34H960H0V238ZM67.8 0.5L71 10.9L82.1 11.2L93.1 11.5L84.6 17.5C79.9 20.8 76.1 23.9 76 24.5C76 25 77.4 29.8 79 35C80.6 40.2 81.8 44.5 81.6 44.7C81.5 44.9 77.6 42.3 73 39C68.4 35.7 64.4 33 64 33C63.7 33 59.6 35.7 55.1 39.1C50.5 42.4 46.6 45 46.4 44.8C46.3 44.6 47.5 39.8 49.2 34.2C52.3 24.2 52.3 23.9 50.4 22.6C49.4 21.8 45.4 18.9 41.5 16.1L34.5 11H45.8H57L60.2 0.5C62 -5.3 63.7 -10 64 -10C64.3 -10 66 -5.3 67.8 0.5ZM195.8 0.5L199 10.9L210.1 11.2L221.1 11.5L212.6 17.5C207.9 20.8 204.1 23.9 204 24.5C204 25 205.4 29.8 207 35C208.6 40.2 209.8 44.5 209.6 44.7C209.5 44.9 205.6 42.3 201 39C196.4 35.7 192.4 33 192 33C191.7 33 187.6 35.7 183.1 39.1C178.5 42.4 174.6 45 174.4 44.8C174.3 44.6 175.5 39.8 177.2 34.2C180.3 24.2 180.3 23.9 178.4 22.6C177.4 21.8 173.4 18.9 169.5 16.1L162.5 11H173.8H185L188.2 0.5C190 -5.3 191.7 -10 192 -10C192.3 -10 194 -5.3 195.8 0.5ZM323.8 0.5L327 10.9L338.1 11.2L349.1 11.5L340.6 17.5C335.9 20.8 332.1 23.9 332 24.5C332 25 333.4 29.8 335 35C336.6 40.2 337.8 44.5 337.6 44.7C337.5 44.9 333.6 42.3 329 39C324.4 35.7 320.4 33 320 33C319.7 33 315.6 35.7 311.1 39.1C306.5 42.4 302.6 45 302.4 44.8C302.3 44.6 303.5 39.8 305.2 34.2C308.3 24.2 308.3 23.9 306.4 22.6C305.4 21.8 301.4 18.9 297.5 16.1L290.5 11H301.8H313L316.2 0.5C318 -5.3 319.7 -10 320 -10C320.3 -10 322 -5.3 323.8 0.5ZM451.8 0.5L455 10.9L466.1 11.2L477.1 11.5L468.6 17.5C463.9 20.8 460.1 23.9 460 24.5C460 25 461.4 29.8 463 35C464.6 40.2 465.8 44.5 465.6 44.7C465.5 44.9 461.6 42.3 457 39C452.4 35.7 448.4 33 448 33C447.7 33 443.6 35.7 439.1 39.1C434.5 42.4 430.6 45 430.4 44.8C430.3 44.6 431.5 39.8 433.2 34.2C436.3 24.2 436.3 23.9 434.4 22.6C433.4 21.8 429.4 18.9 425.5 16.1L418.5 11H429.8H441L444.2 0.5C446 -5.3 447.7 -10 448 -10C448.3 -10 450 -5.3 451.8 0.5ZM579.8 0.5L583 10.9L594.1 11.2L605.1 11.5L596.6 17.5C591.9 20.8 588.1 23.9 588 24.5C588 25 589.4 29.8 591 35C592.6 40.2 593.8 44.5 593.6 44.7C593.5 44.9 589.6 42.3 585 39C580.4 35.7 576.4 33 576 33C575.7 33 571.6 35.7 567.1 39.1C562.5 42.4 558.6 45 558.4 44.8C558.3 44.6 559.5 39.8 561.2 34.2C564.3 24.2 564.3 23.9 562.4 22.6C561.4 21.8 557.4 18.9 553.5 16.1L546.5 11H557.8H569L572.2 0.5C574 -5.3 575.7 -10 576 -10C576.3 -10 578 -5.3 579.8 0.5ZM707.8 0.5L711 10.9L722.1 11.2L733.1 11.5L724.6 17.5C719.9 20.8 716.1 23.9 716 24.5C716 25 717.4 29.8 719 35C720.6 40.2 721.8 44.5 721.6 44.7C721.5 44.9 717.6 42.3 713 39C708.4 35.7 704.4 33 704 33C703.7 33 699.6 35.7 695.1 39.1C690.5 42.4 686.6 45 686.4 44.8C686.3 44.6 687.5 39.8 689.2 34.2C692.3 24.2 692.3 23.9 690.4 22.6C689.4 21.8 685.4 18.9 681.5 16.1L674.5 11H685.8H697L700.2 0.5C702 -5.3 703.7 -10 704 -10C704.3 -10 706 -5.3 707.8 0.5ZM131.8 55L135.1 64.9L146.3 65.2L157.5 65.5L148.8 71.9C143.9 75.4 140 78.8 140 79.4C140 80.1 141.4 84.6 143 89.5C144.7 94.4 146 98.8 146 99.2C146 99.7 142 97.1 137 93.4L128 86.8L119 93.4C114.1 97.1 110 99.7 110 99.2C110 98.8 111.4 94.4 113 89.5C114.7 84.6 116 80.1 116 79.4C116 78.7 112.1 75.3 107.3 71.8L98.5 65.5L109.7 65.2L120.9 64.9L124.2 55C126 49.5 127.7 45 128 45C128.3 45 130 49.5 131.8 55ZM259.8 55L263.1 64.9L274.3 65.2L285.5 65.5L276.8 71.9C271.9 75.4 268 78.8 268 79.4C268 80.1 269.4 84.6 271 89.5C272.7 94.4 274 98.8 274 99.2C274 99.7 270 97.1 265 93.4L256 86.8L247 93.4C242.1 97.1 238 99.7 238 99.2C238 98.8 239.4 94.4 241 89.5C242.7 84.6 244 80.1 244 79.4C244 78.7 240.1 75.3 235.3 71.8L226.5 65.5L237.7 65.2L248.9 64.9L252.2 55C254 49.5 255.7 45 256 45C256.3 45 258 49.5 259.8 55ZM387.8 55L391.1 64.9L402.3 65.2L413.5 65.5L404.8 71.9C399.9 75.4 396 78.8 396 79.4C396 80.1 397.4 84.6 399 89.5C400.7 94.4 402 98.8 402 99.2C402 99.7 398 97.1 393 93.4L384 86.8L375 93.4C370.1 97.1 366 99.7 366 99.2C366 98.8 367.4 94.4 369 89.5C370.7 84.6 372 80.1 372 79.4C372 78.7 368.1 75.3 363.3 71.8L354.5 65.5L365.7 65.2L376.9 64.9L380.2 55C382 49.5 383.7 45 384 45C384.3 45 386 49.5 387.8 55ZM515.8 55L519.1 64.9L530.3 65.2L541.5 65.5L532.8 71.9C527.9 75.4 524 78.8 524 79.4C524 80.1 525.4 84.6 527 89.5C528.7 94.4 530 98.8 530 99.2C530 99.7 526 97.1 521 93.4L512 86.8L503 93.4C498.1 97.1 494 99.7 494 99.2C494 98.8 495.4 94.4 497 89.5C498.7 84.6 500 80.1 500 79.4C500 78.7 496.1 75.3 491.3 71.8L482.5 65.5L493.7 65.2L504.9 64.9L508.2 55C510 49.5 511.7 45 512 45C512.3 45 514 49.5 515.8 55ZM643.8 55L647.1 64.9L658.3 65.2L669.5 65.5L660.8 71.9C655.9 75.4 652 78.8 652 79.4C652 80.1 653.4 84.6 655 89.5C656.7 94.4 658 98.8 658 99.2C658 99.7 654 97.1 649 93.4L640 86.8L631 93.4C626.1 97.1 622 99.7 622 99.2C622 98.8 623.4 94.4 625 89.5C626.7 84.6 628 80.1 628 79.4C628 78.7 624.1 75.3 619.3 71.8L610.5 65.5L621.7 65.2L632.9 64.9L636.2 55C638 49.5 639.7 45 640 45C640.3 45 642 49.5 643.8 55ZM67.9 109.5L71.1 120H82.2H93.4L84.9 126.1C80.3 129.5 76.3 132.4 76.1 132.6C75.9 132.8 77.1 137.6 78.8 143.2C80.5 148.8 81.8 153.5 81.7 153.7C81.5 153.9 77.7 151.3 73.2 148C68.7 144.7 64.5 142 64 142C63.5 142 59.3 144.7 54.8 148C50.3 151.3 46.5 153.8 46.3 153.6C46.1 153.4 47.4 148.7 49.1 143.1C50.9 137.6 52.2 132.8 51.9 132.6C51.7 132.4 47.7 129.5 43.1 126.1L34.6 120H45.8H56.9L60.1 109.5C61.9 103.7 63.6 99 64 99C64.4 99 66.1 103.7 67.9 109.5ZM195.9 109.5L199.1 120H210.2H221.4L212.9 126.1C208.3 129.5 204.3 132.4 204.1 132.6C203.9 132.8 205.1 137.6 206.8 143.2C208.5 148.8 209.8 153.5 209.7 153.7C209.5 153.9 205.7 151.3 201.2 148C196.7 144.7 192.5 142 192 142C191.5 142 187.3 144.7 182.8 148C178.3 151.3 174.5 153.8 174.3 153.6C174.1 153.4 175.4 148.7 177.1 143.1C178.9 137.6 180.2 132.8 179.9 132.6C179.7 132.4 175.7 129.5 171.1 126.1L162.6 120H173.8H184.9L188.1 109.5C189.9 103.7 191.6 99 192 99C192.4 99 194.1 103.7 195.9 109.5ZM323.9 109.5L327.1 120H338.2H349.4L340.9 126.1C336.3 129.5 332.3 132.4 332.1 132.6C331.9 132.8 333.1 137.6 334.8 143.2C336.5 148.8 337.8 153.5 337.7 153.7C337.5 153.9 333.7 151.3 329.2 148C324.7 144.7 320.5 142 320 142C319.5 142 315.3 144.7 310.8 148C306.3 151.3 302.5 153.8 302.3 153.6C302.1 153.4 303.4 148.7 305.1 143.1C306.9 137.6 308.2 132.8 307.9 132.6C307.7 132.4 303.7 129.5 299.1 126.1L290.6 120H301.8H312.9L316.1 109.5C317.9 103.7 319.6 99 320 99C320.4 99 322.1 103.7 323.9 109.5ZM451.9 109.5L455.1 120H466.2H477.4L468.9 126.1C464.3 129.5 460.3 132.4 460.1 132.6C459.9 132.8 461.1 137.6 462.8 143.2C464.5 148.8 465.8 153.5 465.7 153.7C465.5 153.9 461.7 151.3 457.2 148C452.7 144.7 448.5 142 448 142C447.5 142 443.3 144.7 438.8 148C434.3 151.3 430.5 153.8 430.3 153.6C430.1 153.4 431.4 148.7 433.1 143.1C434.9 137.6 436.2 132.8 435.9 132.6C435.7 132.4 431.7 129.5 427.1 126.1L418.6 120H429.8H440.9L444.1 109.5C445.9 103.7 447.6 99 448 99C448.4 99 450.1 103.7 451.9 109.5ZM579.9 109.5L583.1 120H594.2H605.4L596.9 126.1C592.3 129.5 588.3 132.4 588.1 132.6C587.9 132.8 589.1 137.6 590.8 143.2C592.5 148.8 593.8 153.5 593.7 153.7C593.5 153.9 589.7 151.3 585.2 148C580.7 144.7 576.5 142 576 142C575.5 142 571.3 144.7 566.8 148C562.3 151.3 558.5 153.8 558.3 153.6C558.1 153.4 559.4 148.7 561.1 143.1C562.9 137.6 564.2 132.8 563.9 132.6C563.7 132.4 559.7 129.5 555.1 126.1L546.6 120H557.8H568.9L572.1 109.5C573.9 103.7 575.6 99 576 99C576.4 99 578.1 103.7 579.9 109.5ZM707.9 109.5L711.1 120H722.2H733.4L724.9 126.1C720.3 129.5 716.3 132.4 716.1 132.6C715.9 132.8 717.1 137.6 718.8 143.2C720.5 148.8 721.8 153.5 721.7 153.7C721.5 153.9 717.7 151.3 713.2 148C708.7 144.7 704.5 142 704 142C703.5 142 699.3 144.7 694.8 148C690.3 151.3 686.5 153.8 686.3 153.6C686.1 153.4 687.4 148.7 689.1 143.1C690.9 137.6 692.2 132.8 691.9 132.6C691.7 132.4 687.7 129.5 683.1 126.1L674.6 120H685.8H696.9L700.1 109.5C701.9 103.7 703.6 99 704 99C704.4 99 706.1 103.7 707.9 109.5ZM131.8 164L135.1 173.9L146.2 174.2L157.4 174.5L148.7 180.8C143.9 184.3 140 187.7 140 188.4C140 189.1 141.4 193.6 143 198.5C144.7 203.4 146 207.8 146 208.2C146 208.7 143.4 207.2 140.3 204.8C137.1 202.3 133 199.4 131.2 198.1L128 195.8L119 202.4C114 206 110 208.6 110 208.2C110 207.8 111.4 203.3 113.1 198.2C114.8 193.1 116 188.3 115.7 187.6C115.4 186.9 111.4 183.6 106.8 180.4L98.5 174.5L109.7 174.2L120.9 173.9L124.2 164C126 158.5 127.7 154 128 154C128.3 154 130 158.5 131.8 164ZM259.8 164L263.1 173.9L274.2 174.2L285.4 174.5L276.7 180.8C271.9 184.3 268 187.7 268 188.4C268 189.1 269.4 193.6 271 198.5C272.7 203.4 274 207.8 274 208.2C274 208.7 271.4 207.2 268.3 204.8C265.1 202.3 261 199.4 259.2 198.1L256 195.8L247 202.4C242 206 238 208.6 238 208.2C238 207.8 239.4 203.3 241.1 198.2C242.8 193.1 244 188.3 243.7 187.6C243.4 186.9 239.4 183.6 234.8 180.4L226.5 174.5L237.7 174.2L248.9 173.9L252.2 164C254 158.5 255.7 154 256 154C256.3 154 258 158.5 259.8 164ZM387.8 164L391.1 173.9L402.2 174.2L413.4 174.5L404.7 180.8C399.9 184.3 396 187.7 396 188.4C396 189.1 397.4 193.6 399 198.5C400.7 203.4 402 207.8 402 208.2C402 208.7 399.4 207.2 396.3 204.8C393.1 202.3 389 199.4 387.2 198.1L384 195.8L375 202.4C370 206 366 208.6 366 208.2C366 207.8 367.4 203.3 369.1 198.2C370.8 193.1 372 188.3 371.7 187.6C371.4 186.9 367.4 183.6 362.8 180.4L354.5 174.5L365.7 174.2L376.9 173.9L380.2 164C382 158.5 383.7 154 384 154C384.3 154 386 158.5 387.8 164ZM515.8 164L519.1 173.9L530.2 174.2L541.4 174.5L532.7 180.8C527.9 184.3 524 187.7 524 188.4C524 189.1 525.4 193.6 527 198.5C528.7 203.4 530 207.8 530 208.2C530 208.7 527.4 207.2 524.3 204.8C521.1 202.3 517 199.4 515.2 198.1L512 195.8L503 202.4C498 206 494 208.6 494 208.2C494 207.8 495.4 203.3 497.1 198.2C498.8 193.1 500 188.3 499.7 187.6C499.4 186.9 495.4 183.6 490.8 180.4L482.5 174.5L493.7 174.2L504.9 173.9L508.2 164C510 158.5 511.7 154 512 154C512.3 154 514 158.5 515.8 164ZM643.8 164L647.1 173.9L658.2 174.2L669.4 174.5L660.7 180.8C655.9 184.3 652 187.7 652 188.4C652 189.1 653.4 193.6 655 198.5C656.7 203.4 658 207.8 658 208.2C658 208.7 655.4 207.2 652.3 204.8C649.1 202.3 645 199.4 643.2 198.1L640 195.8L631 202.4C626 206 622 208.6 622 208.2C622 207.8 623.4 203.3 625.1 198.2C626.8 193.1 628 188.3 627.7 187.6C627.4 186.9 623.4 183.6 618.8 180.4L610.5 174.5L621.7 174.2L632.9 173.9L636.2 164C638 158.5 639.7 154 640 154C640.3 154 642 158.5 643.8 164ZM67.7 217.7L70.7 227.5L81.8 227.8C88 227.9 93 228.4 93 228.8C92.9 229.2 89.1 232.2 84.5 235.5C79.8 238.7 76 241.9 76 242.5C76 243.1 77.4 247.6 79 252.5C80.7 257.4 81.9 261.8 81.8 262.2C81.6 262.6 77.9 260.3 73.5 257C69.1 253.7 64.9 251.1 64.2 251C63.5 251 59.2 253.7 54.7 257C50.2 260.3 46.4 262.7 46.2 262.2C46.1 261.8 47.3 257.4 49 252.5C50.6 247.6 52 243.1 52 242.5C52 241.9 48.1 238.5 43.3 235L34.5 228.5L45.9 228L57.3 227.5L60.3 217.7C62 212.4 63.6 208 64 208C64.4 208 66 212.4 67.7 217.7ZM195.7 217.7L198.7 227.5L209.8 227.8C216 227.9 221 228.4 221 228.8C220.9 229.2 217.1 232.2 212.5 235.5C207.8 238.7 204 241.9 204 242.5C204 243.1 205.4 247.6 207 252.5C208.7 257.4 209.9 261.8 209.8 262.2C209.6 262.6 205.9 260.3 201.5 257C197.1 253.7 192.9 251.1 192.2 251C191.5 251 187.2 253.7 182.7 257C178.2 260.3 174.4 262.7 174.2 262.2C174.1 261.8 175.3 257.4 177 252.5C178.6 247.6 180 243.1 180 242.5C180 241.9 176.1 238.5 171.3 235L162.5 228.5L173.9 228L185.3 227.5L188.3 217.7C190 212.4 191.6 208 192 208C192.4 208 194 212.4 195.7 217.7ZM323.7 217.7L326.7 227.5L337.8 227.8C344 227.9 349 228.4 349 228.8C348.9 229.2 345.1 232.2 340.5 235.5C335.8 238.7 332 241.9 332 242.5C332 243.1 333.4 247.6 335 252.5C336.7 257.4 337.9 261.8 337.8 262.2C337.6 262.6 333.9 260.3 329.5 257C325.1 253.7 320.9 251.1 320.2 251C319.5 251 315.2 253.7 310.7 257C306.2 260.3 302.4 262.7 302.2 262.2C302.1 261.8 303.3 257.4 305 252.5C306.6 247.6 308 243.1 308 242.5C308 241.9 304.1 238.5 299.3 235L290.5 228.5L301.9 228L313.3 227.5L316.3 217.7C318 212.4 319.6 208 320 208C320.4 208 322 212.4 323.7 217.7ZM451.7 217.7L454.7 227.5L465.8 227.8C472 227.9 477 228.4 477 228.8C476.9 229.2 473.1 232.2 468.5 235.5C463.8 238.7 460 241.9 460 242.5C460 243.1 461.4 247.6 463 252.5C464.7 257.4 465.9 261.8 465.8 262.2C465.6 262.6 461.9 260.3 457.5 257C453.1 253.7 448.9 251.1 448.2 251C447.5 251 443.2 253.7 438.7 257C434.2 260.3 430.4 262.7 430.2 262.2C430.1 261.8 431.3 257.4 433 252.5C434.6 247.6 436 243.1 436 242.5C436 241.9 432.1 238.5 427.3 235L418.5 228.5L429.9 228L441.3 227.5L444.3 217.7C446 212.4 447.6 208 448 208C448.4 208 450 212.4 451.7 217.7ZM579.7 217.7L582.7 227.5L593.8 227.8C600 227.9 605 228.4 605 228.8C604.9 229.2 601.1 232.2 596.5 235.5C591.8 238.7 588 241.9 588 242.5C588 243.1 589.4 247.6 591 252.5C592.7 257.4 593.9 261.8 593.8 262.2C593.6 262.6 589.9 260.3 585.5 257C581.1 253.7 576.9 251.1 576.2 251C575.5 251 571.2 253.7 566.7 257C562.2 260.3 558.4 262.7 558.2 262.2C558.1 261.8 559.3 257.4 561 252.5C562.6 247.6 564 243.1 564 242.5C564 241.9 560.1 238.5 555.3 235L546.5 228.5L557.9 228L569.3 227.5L572.3 217.7C574 212.4 575.6 208 576 208C576.4 208 578 212.4 579.7 217.7ZM707.7 217.7L710.7 227.5L721.8 227.8C728 227.9 733 228.4 733 228.8C732.9 229.2 729.1 232.2 724.5 235.5C719.8 238.7 716 241.9 716 242.5C716 243.1 717.4 247.6 719 252.5C720.7 257.4 721.9 261.8 721.8 262.2C721.6 262.6 717.9 260.3 713.5 257C709.1 253.7 704.9 251.1 704.2 251C703.5 251 699.2 253.7 694.7 257C690.2 260.3 686.4 262.7 686.2 262.2C686.1 261.8 687.3 257.4 689 252.5C690.6 247.6 692 243.1 692 242.5C692 241.9 688.1 238.5 683.3 235L674.5 228.5L685.9 228L697.3 227.5L700.3 217.7C702 212.4 703.6 208 704 208C704.4 208 706 212.4 707.7 217.7ZM131.8 273L135.1 282.9L146.1 283.2L157.2 283.5L148.6 289.8C143.9 293.2 140 296.6 140 297.3C140 298 141.3 302.6 143 307.5C144.6 312.4 145.8 316.5 145.6 316.8C145.3 317 141.9 314.8 137.8 311.8C133.8 308.8 129.9 306 129.2 305.6C128.4 305.1 124.9 307 119.4 311C114.7 314.4 110.7 317 110.5 316.8C110.3 316.6 111.4 312.2 113.1 307.1C114.7 301.9 115.9 297.1 115.6 296.5C115.4 295.8 111.5 292.6 107 289.4L98.8 283.5L109.8 283.2L120.9 282.9L124.2 273C126 267.5 127.7 263 128 263C128.3 263 130 267.5 131.8 273ZM259.8 273L263.1 282.9L274.1 283.2L285.2 283.5L276.6 289.8C271.9 293.2 268 296.6 268 297.3C268 298 269.3 302.6 271 307.5C272.6 312.4 273.8 316.5 273.6 316.8C273.3 317 269.9 314.8 265.8 311.8C261.8 308.8 257.9 306 257.2 305.6C256.4 305.1 252.9 307 247.4 311C242.7 314.4 238.7 317 238.5 316.8C238.3 316.6 239.4 312.2 241.1 307.1C242.7 301.9 243.9 297.1 243.6 296.5C243.4 295.8 239.5 292.6 235 289.4L226.8 283.5L237.8 283.2L248.9 282.9L252.2 273C254 267.5 255.7 263 256 263C256.3 263 258 267.5 259.8 273ZM387.8 273L391.1 282.9L402.1 283.2L413.2 283.5L404.6 289.8C399.9 293.2 396 296.6 396 297.3C396 298 397.3 302.6 399 307.5C400.6 312.4 401.8 316.5 401.6 316.8C401.3 317 397.9 314.8 393.8 311.8C389.8 308.8 385.9 306 385.2 305.6C384.4 305.1 380.9 307 375.4 311C370.7 314.4 366.7 317 366.5 316.8C366.3 316.6 367.4 312.2 369.1 307.1C370.7 301.9 371.9 297.1 371.6 296.5C371.4 295.8 367.5 292.6 363 289.4L354.8 283.5L365.8 283.2L376.9 282.9L380.2 273C382 267.5 383.7 263 384 263C384.3 263 386 267.5 387.8 273ZM515.8 273L519.1 282.9L530.1 283.2L541.2 283.5L532.6 289.8C527.9 293.2 524 296.6 524 297.3C524 298 525.3 302.6 527 307.5C528.6 312.4 529.8 316.5 529.6 316.8C529.3 317 525.9 314.8 521.8 311.8C517.8 308.8 513.9 306 513.2 305.6C512.4 305.1 508.9 307 503.4 311C498.7 314.4 494.7 317 494.5 316.8C494.3 316.6 495.4 312.2 497.1 307.1C498.7 301.9 499.9 297.1 499.6 296.5C499.4 295.8 495.5 292.6 491 289.4L482.8 283.5L493.8 283.2L504.9 282.9L508.2 273C510 267.5 511.7 263 512 263C512.3 263 514 267.5 515.8 273ZM643.8 273L647.1 282.9L658.1 283.2L669.2 283.5L660.6 289.8C655.9 293.2 652 296.6 652 297.3C652 298 653.3 302.6 655 307.5C656.6 312.4 657.8 316.5 657.6 316.8C657.3 317 653.9 314.8 649.8 311.8C645.8 308.8 641.9 306 641.2 305.6C640.4 305.1 636.9 307 631.4 311C626.7 314.4 622.7 317 622.5 316.8C622.3 316.6 623.4 312.2 625.1 307.1C626.7 301.9 627.9 297.1 627.6 296.5C627.4 295.8 623.5 292.6 619 289.4L610.8 283.5L621.8 283.2L632.9 282.9L636.2 273C638 267.5 639.7 263 640 263C640.3 263 642 267.5 643.8 273ZM67.8 327L71.1 336.9L82.3 337.2L93.5 337.5L84.8 344C79.9 347.5 76 350.9 76 351.5C76 352.1 77.4 356.6 79 361.5C80.7 366.4 81.9 370.8 81.8 371.2C81.6 371.5 77.6 369 72.8 365.5L64.1 359.1L55.3 365.5C50.5 369 46.4 371.6 46.2 371.2C46.1 370.8 47.3 366.4 49 361.5C50.6 356.6 52 352.1 52 351.5C52 350.9 48.1 347.5 43.3 343.9L34.5 337.5L45.7 337.2L56.9 336.9L60.2 327C62 321.5 63.7 317 64 317C64.3 317 66 321.5 67.8 327ZM195.8 327L199.1 336.9L210.3 337.2L221.5 337.5L212.8 344C207.9 347.5 204 350.9 204 351.5C204 352.1 205.4 356.6 207 361.5C208.7 366.4 209.9 370.8 209.8 371.2C209.6 371.5 205.6 369 200.8 365.5L192.1 359.1L183.3 365.5C178.5 369 174.4 371.6 174.2 371.2C174.1 370.8 175.3 366.4 177 361.5C178.6 356.6 180 352.1 180 351.5C180 350.9 176.1 347.5 171.3 343.9L162.5 337.5L173.7 337.2L184.9 336.9L188.2 327C190 321.5 191.7 317 192 317C192.3 317 194 321.5 195.8 327ZM323.8 327L327.1 336.9L338.3 337.2L349.5 337.5L340.8 344C335.9 347.5 332 350.9 332 351.5C332 352.1 333.4 356.6 335 361.5C336.7 366.4 337.9 370.8 337.8 371.2C337.6 371.5 333.6 369 328.8 365.5L320.1 359.1L311.3 365.5C306.5 369 302.4 371.6 302.2 371.2C302.1 370.8 303.3 366.4 305 361.5C306.6 356.6 308 352.1 308 351.5C308 350.9 304.1 347.5 299.3 343.9L290.5 337.5L301.7 337.2L312.9 336.9L316.2 327C318 321.5 319.7 317 320 317C320.3 317 322 321.5 323.8 327ZM451.8 327L455.1 336.9L466.3 337.2L477.5 337.5L468.8 344C463.9 347.5 460 350.9 460 351.5C460 352.1 461.4 356.6 463 361.5C464.7 366.4 465.9 370.8 465.8 371.2C465.6 371.5 461.6 369 456.8 365.5L448.1 359.1L439.3 365.5C434.5 369 430.4 371.6 430.2 371.2C430.1 370.8 431.3 366.4 433 361.5C434.6 356.6 436 352.1 436 351.5C436 350.9 432.1 347.5 427.3 343.9L418.5 337.5L429.7 337.2L440.9 336.9L444.2 327C446 321.5 447.7 317 448 317C448.3 317 450 321.5 451.8 327ZM579.8 327L583.1 336.9L594.3 337.2L605.5 337.5L596.8 344C591.9 347.5 588 350.9 588 351.5C588 352.1 589.4 356.6 591 361.5C592.7 366.4 593.9 370.8 593.8 371.2C593.6 371.5 589.6 369 584.8 365.5L576.1 359.1L567.3 365.5C562.5 369 558.4 371.6 558.2 371.2C558.1 370.8 559.3 366.4 561 361.5C562.6 356.6 564 352.1 564 351.5C564 350.9 560.1 347.5 555.3 343.9L546.5 337.5L557.7 337.2L568.9 336.9L572.2 327C574 321.5 575.7 317 576 317C576.3 317 578 321.5 579.8 327ZM707.8 327L711.1 336.9L722.3 337.2L733.5 337.5L724.8 344C719.9 347.5 716 350.9 716 351.5C716 352.1 717.4 356.6 719 361.5C720.7 366.4 721.9 370.8 721.8 371.2C721.6 371.5 717.6 369 712.8 365.5L704.1 359.1L695.3 365.5C690.5 369 686.4 371.6 686.2 371.2C686.1 370.8 687.3 366.4 689 361.5C690.6 356.6 692 352.1 692 351.5C692 350.9 688.1 347.5 683.3 343.9L674.5 337.5L685.7 337.2L696.9 336.9L700.2 327C702 321.5 703.7 317 704 317C704.3 317 706 321.5 707.8 327ZM131.8 381.5L135.1 391.9L146.2 392.2L157.3 392.5L148.7 398.5C143.9 401.8 140.1 405 140 405.5C140 406.1 141.3 410.8 143 416C144.6 421.2 145.7 425.6 145.6 425.8C145.4 426 141.5 423.4 136.9 420.1C132.4 416.7 128.4 414 128 414C127.6 414 123.6 416.7 119.1 420.1C114.5 423.4 110.6 426 110.4 425.8C110.3 425.6 111.4 421.2 113 416C114.7 410.8 116 406.1 116 405.5C115.9 405 112.1 401.8 107.4 398.5L98.9 392.5L109.9 392.2L121 391.9L124.2 381.5C126 375.7 127.7 371 128 371C128.3 371 130 375.7 131.8 381.5ZM259.8 381.5L263.1 391.9L274.2 392.2L285.3 392.5L276.7 398.5C271.9 401.8 268.1 405 268 405.5C268 406.1 269.3 410.8 271 416C272.6 421.2 273.7 425.6 273.6 425.8C273.4 426 269.5 423.4 264.9 420.1C260.4 416.7 256.4 414 256 414C255.6 414 251.6 416.7 247.1 420.1C242.5 423.4 238.6 426 238.4 425.8C238.3 425.6 239.4 421.2 241 416C242.7 410.8 244 406.1 244 405.5C243.9 405 240.1 401.8 235.4 398.5L226.9 392.5L237.9 392.2L249 391.9L252.2 381.5C254 375.7 255.7 371 256 371C256.3 371 258 375.7 259.8 381.5ZM387.8 381.5L391.1 391.9L402.2 392.2L413.3 392.5L404.7 398.5C399.9 401.8 396.1 405 396 405.5C396 406.1 397.3 410.8 399 416C400.6 421.2 401.7 425.6 401.6 425.8C401.4 426 397.5 423.4 392.9 420.1C388.4 416.7 384.4 414 384 414C383.6 414 379.6 416.7 375.1 420.1C370.5 423.4 366.6 426 366.4 425.8C366.3 425.6 367.4 421.2 369 416C370.7 410.8 372 406.1 372 405.5C371.9 405 368.1 401.8 363.4 398.5L354.9 392.5L365.9 392.2L377 391.9L380.2 381.5C382 375.7 383.7 371 384 371C384.3 371 386 375.7 387.8 381.5ZM515.8 381.5L519.1 391.9L530.2 392.2L541.3 392.5L532.7 398.5C527.9 401.8 524.1 405 524 405.5C524 406.1 525.3 410.8 527 416C528.6 421.2 529.7 425.6 529.6 425.8C529.4 426 525.5 423.4 520.9 420.1C516.4 416.7 512.4 414 512 414C511.6 414 507.6 416.7 503.1 420.1C498.5 423.4 494.6 426 494.4 425.8C494.3 425.6 495.4 421.2 497 416C498.7 410.8 500 406.1 500 405.5C499.9 405 496.1 401.8 491.4 398.5L482.9 392.5L493.9 392.2L505 391.9L508.2 381.5C510 375.7 511.7 371 512 371C512.3 371 514 375.7 515.8 381.5ZM643.8 381.5L647.1 391.9L658.2 392.2L669.3 392.5L660.7 398.5C655.9 401.8 652.1 405 652 405.5C652 406.1 653.3 410.8 655 416C656.6 421.2 657.7 425.6 657.6 425.8C657.4 426 653.5 423.4 648.9 420.1C644.4 416.7 640.4 414 640 414C639.6 414 635.6 416.7 631.1 420.1C626.5 423.4 622.6 426 622.4 425.8C622.3 425.6 623.4 421.2 625 416C626.7 410.8 628 406.1 628 405.5C627.9 405 624.1 401.8 619.4 398.5L610.9 392.5L621.9 392.2L633 391.9L636.2 381.5C638 375.7 639.7 371 640 371C640.3 371 642 375.7 643.8 381.5ZM67.8 436L71.1 445.9L82.3 446.2L93.5 446.5L84.8 452.9C79.9 456.4 76 459.8 76 460.4C76 461.1 77.4 465.6 79 470.5C80.7 475.4 82 479.7 82 480.2C82 480.6 77.9 478.1 73 474.5L64 468L55.2 474.4C50.4 477.9 46.4 480.5 46.2 480.1C46.1 479.8 47.3 475.4 49 470.5C50.6 465.6 52 461.1 52 460.4C52 459.8 48.1 456.4 43.3 452.9L34.5 446.5L45.7 446.2L56.9 445.9L60.2 436C62 430.5 63.7 426 64 426C64.3 426 66 430.5 67.8 436ZM195.8 436L199.1 445.9L210.3 446.2L221.5 446.5L212.8 452.9C207.9 456.4 204 459.8 204 460.4C204 461.1 205.4 465.6 207 470.5C208.7 475.4 210 479.7 210 480.2C210 480.6 205.9 478.1 201 474.5L192 468L183.2 474.4C178.4 477.9 174.4 480.5 174.2 480.1C174.1 479.8 175.3 475.4 177 470.5C178.6 465.6 180 461.1 180 460.4C180 459.8 176.1 456.4 171.3 452.9L162.5 446.5L173.7 446.2L184.9 445.9L188.2 436C190 430.5 191.7 426 192 426C192.3 426 194 430.5 195.8 436ZM323.8 436L327.1 445.9L338.3 446.2L349.5 446.5L340.8 452.9C335.9 456.4 332 459.8 332 460.4C332 461.1 333.4 465.6 335 470.5C336.7 475.4 338 479.7 338 480.2C338 480.6 333.9 478.1 329 474.5L320 468L311.2 474.4C306.4 477.9 302.4 480.5 302.2 480.1C302.1 479.8 303.3 475.4 305 470.5C306.6 465.6 308 461.1 308 460.4C308 459.8 304.1 456.4 299.3 452.9L290.5 446.5L301.7 446.2L312.9 445.9L316.2 436C318 430.5 319.7 426 320 426C320.3 426 322 430.5 323.8 436ZM451.8 436L455.1 445.9L466.3 446.2L477.5 446.5L468.8 452.9C463.9 456.4 460 459.8 460 460.4C460 461.1 461.4 465.6 463 470.5C464.7 475.4 466 479.7 466 480.2C466 480.6 461.9 478.1 457 474.5L448 468L439.2 474.4C434.4 477.9 430.4 480.5 430.2 480.1C430.1 479.8 431.3 475.4 433 470.5C434.6 465.6 436 461.1 436 460.4C436 459.8 432.1 456.4 427.3 452.9L418.5 446.5L429.7 446.2L440.9 445.9L444.2 436C446 430.5 447.7 426 448 426C448.3 426 450 430.5 451.8 436ZM579.8 436L583.1 445.9L594.3 446.2L605.5 446.5L596.8 452.9C591.9 456.4 588 459.8 588 460.4C588 461.1 589.4 465.6 591 470.5C592.7 475.4 594 479.7 594 480.2C594 480.6 589.9 478.1 585 474.5L576 468L567.2 474.4C562.4 477.9 558.4 480.5 558.2 480.1C558.1 479.8 559.3 475.4 561 470.5C562.6 465.6 564 461.1 564 460.4C564 459.8 560.1 456.4 555.3 452.9L546.5 446.5L557.7 446.2L568.9 445.9L572.2 436C574 430.5 575.7 426 576 426C576.3 426 578 430.5 579.8 436ZM707.8 436L711.1 445.9L722.3 446.2L733.5 446.5L724.8 452.9C719.9 456.4 716 459.8 716 460.4C716 461.1 717.4 465.6 719 470.5C720.7 475.4 722 479.7 722 480.2C722 480.6 717.9 478.1 713 474.5L704 468L695.2 474.4C690.4 477.9 686.4 480.5 686.2 480.1C686.1 479.8 687.3 475.4 689 470.5C690.6 465.6 692 461.1 692 460.4C692 459.8 688.1 456.4 683.3 452.9L674.5 446.5L685.7 446.2L696.9 445.9L700.2 436C702 430.5 703.7 426 704 426C704.3 426 706 430.5 707.8 436Z" fill="url(#paint0_radial)"/>
</mask>
<g mask="url(#mask0)">
<path fill-rule="evenodd" clip-rule="evenodd" d="M4.15258e-05 475H648V350.708L767.464 236.5L648 122.292V-9.15527e-05L0 7.62939e-06L4.15258e-05 475Z" fill="url(#paint1_radial)"/>
</g>
</g>
<defs>
<radialGradient id="paint0_radial" cx="0" cy="0" r="1" gradientUnits="userSpaceOnUse" gradientTransform="translate(960 238) scale(1686.5 5952.35)">
<stop stop-color="#20203F"/>
<stop offset="1" stop-color="#3C3B6E"/>
</radialGradient>
<radialGradient id="paint1_radial" cx="0" cy="0" r="1" gradientUnits="userSpaceOnUse" gradientTransform="translate(383.732 237.5) rotate(180) scale(674.13 5197.37)">
<stop stop-color="#20203F"/>
<stop offset="1" stop-color="#3C3B6E"/>
</radialGradient>
<clipPath id="clip0">
<rect width="768" height="475" fill="white"/>
</clipPath>
</defs>
</svg>
