<svg width="34" height="34" viewBox="0 0 34 34" fill="none" xmlns="http://www.w3.org/2000/svg">
<path d="M21.4115 21.0119C21.0715 19.9579 21.4625 18.8019 22.3635 18.1559L26.979 14.8749H21.3265C20.213 14.8749 19.2355 14.1609 18.8955 13.0984L17 7.19943L15.113 13.1069C14.773 14.1609 13.7955 14.8834 12.682 14.8834H7.02948L11.645 18.1644C12.546 18.8104 12.937 19.9579 12.597 21.0204L10.7865 26.6899L15.47 23.1709C16.3795 22.4909 17.6205 22.4909 18.53 23.1709L23.2135 26.6899L21.4115 21.0119ZM25.517 29.4694C25.2365 29.8434 24.701 29.9199 24.327 29.6394L17.51 24.5224C17.204 24.2929 16.796 24.2929 16.49 24.5224L9.67298 29.6394C9.45198 29.8009 9.16298 29.8519 8.90798 29.7669C8.45748 29.6224 8.21098 29.1464 8.35548 28.6959L10.9735 20.4934C11.084 20.1449 10.9565 19.7539 10.659 19.5414L3.87598 14.7134C3.65498 14.5519 3.51898 14.2969 3.51898 14.0164C3.51898 13.5489 3.90148 13.1664 4.36898 13.1664H12.682C13.056 13.1664 13.379 12.9284 13.4895 12.5714L16.1925 4.13093C16.2775 3.86743 16.4815 3.66343 16.745 3.57843C17.1955 3.43393 17.6715 3.68043 17.816 4.13093L20.519 12.5714C20.6295 12.9199 20.961 13.1664 21.3265 13.1664H29.648C29.92 13.1664 30.1835 13.3024 30.345 13.5234C30.6 13.9144 30.515 14.4499 30.1325 14.7219L23.341 19.5499C23.0435 19.7624 22.9075 20.1449 23.0265 20.5019L25.6445 28.7044C25.7295 28.9594 25.687 29.2484 25.517 29.4694Z" fill="#80868B"/>
</svg>
