<svg width="34" height="34" viewBox="0 0 34 34" fill="none" xmlns="http://www.w3.org/2000/svg">
<path d="M25.6478 28.7006L23.0283 20.4983C22.9158 20.1461 23.0439 19.7616 23.3452 19.5472L30.1306 14.7188C30.5131 14.4466 30.6025 13.9159 30.3303 13.5334C30.1708 13.3092 29.9126 13.1761 29.6374 13.1762L21.3184 13.1799C20.9485 13.18 20.621 12.941 20.5084 12.5887L17.8093 4.14656C17.6664 3.69941 17.188 3.45282 16.7409 3.59578C16.4791 3.67948 16.2739 3.88461 16.1901 4.14639L13.4891 12.5889C13.3764 12.9411 13.0489 13.18 12.6792 13.1799L4.36258 13.1762C3.89314 13.176 3.51241 13.5564 3.51221 14.0258C3.51209 14.301 3.64519 14.5592 3.86939 14.7188L10.655 19.5473C10.9561 19.7616 11.0843 20.146 10.972 20.4981L8.35607 28.701C8.21344 29.1482 8.46038 29.6264 8.90763 29.769C9.16979 29.8526 9.4562 29.8042 9.67625 29.6389L16.4898 24.5231C16.7921 24.2962 17.2079 24.2961 17.5103 24.523L24.3279 29.6391C24.7033 29.9208 25.2361 29.8449 25.5179 29.4694C25.6831 29.2493 25.7315 28.9628 25.6478 28.7006Z" fill="#FABB05"/>
</svg>
